<?xml version="1.0" encoding="UTF-8"?>
<svg width="95px" height="15px" viewBox="0 0 95 15" version="1.1" xmlns="http://www.w3.org/2000/svg" xmlns:xlink="http://www.w3.org/1999/xlink">
    <!-- Generator: Sketch 53 (72520) - https://sketchapp.com -->
    <title>CNBC_Horizontal</title>
    <desc>Created with Sketch.</desc>
    <g id="Pages" stroke="none" stroke-width="1" fill="none" fill-rule="evenodd">
        <g id="CNBC_Horizontal" fill-rule="nonzero">
            <path d="M12.6385115,1.99082278 C12.2455095,1.00936709 11.2882018,-0.0506012658 9.49534965,0.0950316456 C7.21136364,0.343386076 6.49967033,2.53291139 6.84484016,3.83914557 C5.93517483,3.22291139 4.38841159,2.95196203 3.03838661,4.10886076 C1.29516983,5.85674051 2.22761239,8.22066456 3.18586913,8.78762658 C2.12986014,8.68984177 0.460669331,9.40367089 0.0913936064,11.2711709 C-0.301418581,13.5896203 1.46552448,14.9411392 3.18586913,14.9411392 L22.2638811,14.9411392 C24.2533766,14.9411392 25.3571229,13.219557 25.2333666,11.5958544 C25.0381469,9.47677215 23.0997103,8.66363924 22.0421828,8.8378481 C22.9257493,8.34474684 24.1055145,6.02867089 22.3114286,4.20787975 C20.8872827,2.85275316 19.0717483,3.34585443 18.4334166,3.93683544 C18.7775425,2.80490506 18.2132368,0.464810127 15.9034366,0.0947468354 C15.7437113,0.0768037975 15.5900599,0.0672151899 15.4435265,0.0672151899 C13.6801898,0.0675 12.8873526,1.35693038 12.6385115,1.99082278" id="path3113"></path>
            <path d="M3.35603397,4.47778481 C2.34880619,5.38984177 1.98218781,7.45661392 3.79800699,8.66477848 L11.0416384,13.6360443 L7.52939061,5.58693038 C6.7934016,3.68734177 4.77999001,3.27322785 3.35603397,4.47778481" id="path3115" fill="#978A7F"></path>
            <path d="M9.59148851,0.564208861 C8.414001,0.588132911 6.64591908,1.99082278 7.43277722,4.13268987 L11.0653646,12.7027215 L12.3418382,3.68867089 C12.6372777,1.44892405 10.9428422,0.414968354 9.59148851,0.564208861" id="path3117" fill="#978A7F"></path>
            <path d="M12.9088012,3.34481013 L13.5957243,3.34481013 C13.5957243,3.34481013 13.9625325,3.34481013 14.0124525,3.51797468 C13.7422577,3.73879747 13.0063636,3.76642405 13.1041159,4.94601266 L14.2588262,12.7014873 L17.8665485,4.10905063 C18.6044356,2.19056962 17.0555844,0.588227848 15.6816434,0.539240506 C15.6173926,0.534588608 15.552952,0.530886076 15.4863287,0.530886076 C14.2529421,0.530886076 12.8397103,1.42737342 12.9088012,3.34481013" id="path3119" fill="#978A7F"></path>
            <path d="M17.7212488,5.65984177 L14.3089361,13.6124051 L21.5504795,8.61484177 C23.2197652,7.43041139 22.9505195,5.53689873 22.0161788,4.60091772 C21.6244106,4.16031646 20.9051249,3.81996835 20.1432268,3.81996835 C19.2430519,3.81996835 18.2797652,4.29759494 17.7212488,5.65984177" id="path3121" fill="#978A7F"></path>
            <path d="M20.7396104,9.74658228 L13.9389011,14.4983544 L22.3125674,14.4983544 C24.0305395,14.4983544 25.1344755,12.7264557 24.6437213,11.1003797 C24.31497,10.0783861 23.3424775,9.27607595 22.2137712,9.27484177 C21.7385814,9.27503165 21.2347303,9.41829114 20.7396104,9.74658228" id="path3123" fill="#978A7F"></path>
            <path d="M3.161004,14.4982595 L11.411009,14.4982595 L4.60859141,9.74648734 C3.03705794,8.73636076 1.27001998,9.32743671 0.632067932,11.0034494 C0.0912987013,12.9222152 1.44141858,14.4982595 3.161004,14.4982595" id="path3125" fill="#978A7F"></path>
            <path d="M27.6878022,8.39563291 C27.6878022,10.5594304 29.4561688,14.4982595 36.2083816,14.4982595 C42.4338711,14.4982595 44.40002,11.6407595 44.40002,10.3306329 L39.5803596,10.3306329 C39.5803596,10.3306329 39.3514486,12.061519 36.6327023,12.061519 C33.9121528,12.061519 33.1764486,9.78977848 33.1764486,8.47632911 C33.1764486,7.16791139 33.9121528,5.01901899 36.6327023,5.01901899 C39.3513536,5.01901899 39.5803596,6.52613924 39.5803596,6.52613924 L44.40002,6.52613924 C44.40002,5.21439873 42.9574625,2.3971519 36.2083816,2.3971519 C29.4561688,2.3971519 27.6878022,6.59202532 27.6878022,8.39563291" id="Shape" fill="#978A7F"></path>
            <path d="M78.2331169,8.39563291 C78.2331169,10.5594304 80.0032867,14.4982595 86.7537912,14.4982595 C92.9784266,14.4982595 94.9455245,11.6407595 94.9455245,10.3306329 L90.1292807,10.3306329 C90.1292807,10.3306329 89.8993257,12.061519 87.1798202,12.061519 C84.4590809,12.061519 83.7224276,9.78977848 83.7224276,8.47632911 C83.7224276,7.16791139 84.4590809,5.01901899 87.1798202,5.01901899 C89.8993257,5.01901899 90.1292807,6.52613924 90.1292807,6.52613924 L94.9455245,6.52613924 C94.9455245,5.21439873 93.5042957,2.3971519 86.7537912,2.3971519 C80.0032867,2.3971519 78.2331169,6.59202532 78.2331169,8.39563291" id="Shape" fill="#978A7F"></path>
            <polyline id="Shape" fill="#978A7F" points="57.571993 2.59917722 57.571993 9.92449367 51.963007 2.59917722 45.6533367 2.59917722 45.6533367 14.2017722 49.979016 14.2017722 49.979016 6.79234177 55.4898701 14.2017722 61.8978621 14.2017722 61.8978621 2.59917722 57.571993 2.59917722"></polyline>
            <path d="M71.4333566,11.4299051 L71.4333566,11.4451899 L67.8290509,11.4451899 L67.8290509,9.315 L71.4333566,9.315 L71.4333566,9.32183544 C72.2029421,9.32183544 72.8248551,9.79490506 72.8248551,10.3775316 C72.8248551,10.9587342 72.203037,11.4299051 71.4333566,11.4299051 L71.4333566,11.4299051 Z M67.8623626,4.85582278 L71.3351299,4.85582278 L71.3351299,4.86075949 C71.9234466,4.86075949 72.4005345,5.24800633 72.4005345,5.72458861 C72.4005345,6.20297468 71.9235415,6.58689873 71.3351299,6.58689873 L71.3351299,6.59202532 L67.8623626,6.59202532 L67.8623626,4.85582278 Z M74.9733167,8.0335443 C75.7608392,8.0335443 77.4072527,7.11911392 77.4072527,5.3475 C77.4072527,2.82493671 72.7114436,2.59917722 71.9911139,2.59917722 L63.338996,2.59917722 L63.338996,14.2017722 L71.9911139,14.2017722 C76.1523227,14.2017722 77.8238861,12.8867089 77.8238861,10.6908228 C77.8238861,8.49493671 74.9733167,8.0335443 74.9733167,8.0335443 Z" id="Shape" fill="#978A7F"></path>
        </g>
    </g>
</svg>