<svg width="163" height="26" viewBox="0 0 163 26" fill="none" xmlns="http://www.w3.org/2000/svg">
<path d="M98.1709 9.07787L100.451 15.0628H96.033L98.1709 9.07787ZM97.3157 7.08289L92.3282 20.1926H94.1809L95.4636 16.6302H101.021L102.304 20.1926H104.156L99.1689 7.08289H97.3163H97.3157ZM124.246 20.1926H125.956V7.08289H124.246V20.1926ZM106.714 12.4974C107.285 11.6422 108.424 10.93 109.564 10.93C111.844 10.93 112.984 12.4974 112.984 14.7776V20.335H111.274V15.0623C111.274 13.2096 110.278 12.4979 108.995 12.4979C107.57 12.4979 106.572 13.923 106.572 15.2052V20.1926H104.863V11.0729H106.572L106.715 12.4979L106.714 12.4974ZM114.41 17.4854C114.41 15.4904 116.262 14.3506 118.4 14.3506C119.683 14.3506 120.538 14.6358 120.822 14.921V14.6358C120.822 13.2107 119.683 12.4979 118.543 12.4979C117.546 12.4979 116.69 12.9255 116.405 13.7806L114.842 13.0673C115.127 12.2121 116.267 10.9294 118.553 10.9294C120.691 10.9294 122.543 12.2121 122.543 14.777V20.1921H120.975V18.9032H120.833C120.405 19.6155 119.408 20.4706 117.84 20.4706C115.988 20.4706 114.42 19.3308 114.42 17.4782L114.41 17.4854ZM120.833 16.3383C120.833 16.3383 120.121 15.7679 118.695 15.7679C116.985 15.7679 116.272 16.7648 116.272 17.4776C116.272 18.4746 117.269 18.9027 118.125 18.9027C119.408 18.9027 120.832 17.7629 120.832 16.3383" fill="white"/>
<path fill-rule="evenodd" clip-rule="evenodd" d="M128.374 24.1814L130.369 19.4736L126.806 11.209H128.516L131.223 17.4787L133.93 11.209H135.64L130.084 24.1814H128.374H128.374ZM153.452 14.2076C153.024 13.0667 152.027 12.355 151.03 12.355C149.605 12.355 148.323 13.6377 148.323 15.4898C148.323 17.3419 149.606 18.6246 151.03 18.6246C152.027 18.6246 153.025 17.9123 153.453 16.9148L154.878 17.77C154.165 19.3374 152.74 20.3343 151.03 20.3343C148.608 20.3343 146.613 18.1965 146.613 15.4898C146.613 12.6396 148.608 10.6447 151.03 10.6447C152.74 10.6447 154.165 11.6416 154.878 13.209L153.453 14.2059L153.452 14.2076Z" fill="white"/>
<path d="M159.58 20.4774C161.86 20.4774 163 19.1947 163 17.6273C163 14.2072 158.013 15.4894 158.013 13.4955C158.013 12.7832 158.583 12.3557 159.58 12.3557C160.577 12.3557 161.575 12.7832 162.003 13.4955L162.999 12.4986C162.429 11.7863 160.862 10.7888 159.437 10.7888C157.299 10.7888 156.16 12.0715 156.16 13.639C156.16 16.9161 161.29 15.7768 161.29 17.4866C161.29 18.3417 160.719 18.9116 159.58 18.9116C158.441 18.9116 157.87 18.1994 157.3 17.4866L156.018 18.4835C156.873 19.3387 158.155 20.4785 159.58 20.4785V20.4774ZM143.335 20.1922H145.045V11.0729H143.335V20.1927V20.1922Z" fill="white"/>
<path fill-rule="evenodd" clip-rule="evenodd" d="M144.048 6.65527C144.76 6.65527 145.188 7.22574 145.188 7.7951C145.188 8.50736 144.617 8.93494 144.048 8.93494C143.479 8.93494 142.908 8.36447 142.908 7.7951C142.908 7.22574 143.479 6.65527 144.048 6.65527ZM141.626 18.7681L141.911 20.0508H140.202C138.634 20.0508 137.922 18.911 137.922 17.2007V12.7831H136.212V11.0734H137.922V8.36613H139.632V11.0734H141.627V12.7831H139.632V17.4909C139.632 18.7736 140.629 18.7736 141.627 18.7736L141.626 18.7681Z" fill="white"/>
<path d="M36.6066 12.3551V14.4929H41.594C41.4517 15.6328 41.0236 16.4879 40.4542 17.0573C39.7419 17.7695 38.6016 18.6247 36.6066 18.6247C33.6141 18.6247 31.1915 16.2021 31.1915 13.0673C31.1915 10.0748 33.6141 7.50995 36.6066 7.50995C38.3163 7.50995 39.4567 8.2222 40.3174 8.93501L41.7425 7.50995C40.4597 6.37011 38.8923 5.37207 36.6127 5.37207C32.4809 5.37207 28.918 8.79212 28.918 12.9244C28.918 17.0567 32.4748 20.4762 36.6071 20.4762C38.8868 20.4762 40.5971 19.764 41.8798 18.3383C43.3049 16.9133 43.7325 15.0612 43.7325 13.4932C43.7325 13.0657 43.7325 12.4963 43.5901 12.2105H36.6116L36.6066 12.3551ZM49.2887 10.6509C46.5815 10.6509 44.4436 12.6458 44.4436 15.496C44.4436 18.3461 46.5815 20.3405 49.2887 20.3405C51.996 20.3405 54.1338 18.2027 54.1338 15.496C54.1338 12.6458 51.996 10.6509 49.2887 10.6509V10.6509ZM49.2887 18.4879C47.8637 18.4879 46.5815 17.2052 46.5815 15.4954C46.5815 13.7857 47.8642 12.5029 49.2887 12.5029C50.7132 12.5029 51.996 13.6428 51.996 15.4954C51.996 17.3481 50.7132 18.4879 49.2887 18.4879ZM72.658 11.6478C72.0876 11.0773 71.233 10.508 69.9508 10.508C67.5282 10.508 65.3909 12.6458 65.3909 15.3531C65.3909 18.0603 67.5288 20.1976 69.9508 20.1976C71.0906 20.1976 72.0887 19.6272 72.5151 19.0578H72.6575V19.7701C72.6575 21.6227 71.6605 22.6202 70.0931 22.6202C68.8104 22.6202 67.9553 21.6233 67.6706 20.9104L65.8179 21.6227C66.3884 22.9054 67.8129 24.4728 70.0926 24.4728C72.6569 24.4728 74.8003 23.0478 74.8003 19.343V10.5091H72.8054V11.6489L72.658 11.6478ZM70.2355 18.4879C68.8104 18.4879 67.6711 17.2052 67.6711 15.4954C67.6711 13.7857 68.811 12.5029 70.2355 12.5029C71.66 12.5029 72.7998 13.7857 72.7998 15.4954C72.7998 17.2052 71.66 18.4879 70.2355 18.4879ZM59.833 10.6509C57.1258 10.6509 54.9879 12.6458 54.9879 15.496C54.9879 18.3461 57.1258 20.3405 59.833 20.3405C62.5402 20.3405 64.6781 18.2027 64.6781 15.496C64.8205 12.6458 62.5402 10.6509 59.833 10.6509ZM59.833 18.4879C58.4079 18.4879 57.1258 17.2052 57.1258 15.4954C57.1258 13.7857 58.4085 12.5029 59.833 12.5029C61.2575 12.5029 62.5402 13.6428 62.5402 15.4954C62.5402 17.3481 61.2575 18.4879 59.833 18.4879ZM76.3628 5.51552H78.5006V20.335H76.3628V5.51552ZM84.3427 18.4823C83.2029 18.4823 82.4901 17.9119 81.9201 17.0573L88.475 14.35L88.1898 13.7796C87.7622 12.6397 86.48 10.6448 84.058 10.6448C81.4937 10.6448 79.4981 12.6397 79.4981 15.4899C79.4981 18.1971 81.636 20.3344 84.3432 20.3344C86.6229 20.3344 87.9056 18.9094 88.475 18.1966L86.7653 17.0567C86.1948 17.9119 85.4825 18.4818 84.3427 18.4818V18.4823ZM84.2004 12.4974C85.0555 12.4974 85.7678 12.925 86.053 13.6372L81.6355 15.4899C81.6355 13.352 83.0605 12.4974 84.1998 12.4974H84.2004Z" fill="white"/>
<path d="M16.1405 3.08135V22.4498C16.1405 24.617 17.6372 25.8246 19.2219 25.8246C20.6892 25.8246 22.3032 24.7975 22.3032 22.4498V3.22808C22.3032 1.24134 20.8359 0 19.2219 0C17.6078 0 16.1405 1.369 16.1405 3.08135Z" fill="#F9AB00"/>
<path d="M8.07007 12.9122V22.4497C8.07007 24.6169 9.56673 25.8245 11.1514 25.8245C12.6187 25.8245 14.2328 24.7974 14.2328 22.4497V13.0589C14.2328 11.0722 12.7655 9.83081 11.1514 9.83081C9.53738 9.83081 8.07007 11.1998 8.07007 12.9122Z" fill="#E37400"/>
<path d="M3.08136 25.8246C4.78315 25.8246 6.16272 24.445 6.16272 22.7432C6.16272 21.0414 4.78315 19.6619 3.08136 19.6619C1.37957 19.6619 0 21.0414 0 22.7432C0 24.445 1.37957 25.8246 3.08136 25.8246Z" fill="#E37400"/>
</svg>
