<svg width="102" height="31" viewBox="0 0 102 31" fill="none" xmlns="http://www.w3.org/2000/svg">
<path d="M11.7517 4.84424V12.8338H4.34863V4.84424H0.833252V23.9145H4.34863V16.1857H11.7517V23.9145H15.2668V4.84424H11.7517Z" fill="white"/>
<path d="M26.5154 17.7511C26.5154 19.3394 25.2102 20.6318 23.608 20.6318C22.005 20.6318 20.7005 19.3394 20.7005 17.7511V9.58301H17.3711V17.7511C17.3711 21.1586 20.1693 23.9307 23.608 23.9307C27.0459 23.9307 29.8434 21.1586 29.8434 17.7511V9.58301H26.5154V17.7511Z" fill="white"/>
<path d="M51.2172 10.424C51.2172 8.74929 52.3357 8.21855 53.5606 8.21855C54.5463 8.21855 55.8511 8.96195 56.7022 9.86565L58.8852 7.31556C57.7946 5.85458 55.5844 4.84473 53.7734 4.84473C50.1516 4.84473 47.5419 6.94368 47.5419 10.424C47.5419 16.8794 55.5048 14.8331 55.5048 18.4472C55.5048 19.5618 54.4131 20.5455 53.1618 20.5455C51.1908 20.5455 50.5511 19.5891 49.6461 18.5796L47.2224 21.0762C48.7675 22.9625 50.6846 23.9197 52.9748 23.9197C56.4102 23.9197 59.1798 21.7942 59.1798 18.4727C59.1798 11.3001 51.2172 13.5321 51.2172 10.424Z" fill="white"/>
<path d="M100.479 20.8687C98.5094 20.8687 97.9503 20.0245 97.9503 18.731V13.004H101.012V10.1014H97.9503V6.27393L94.5688 7.7783V19.4436C94.5688 22.4262 96.6451 23.9309 99.4936 23.9309C99.9199 23.9309 100.506 23.9036 100.826 23.8255L101.652 20.8167C101.279 20.8422 100.853 20.8687 100.479 20.8687Z" fill="white"/>
<path fill-rule="evenodd" clip-rule="evenodd" d="M35.2875 11.2364C36.4009 10.1537 37.5531 9.67855 39.2046 9.67855C42.9331 9.67855 46.1394 12.7666 46.1394 16.8049C46.1394 20.8948 42.6624 23.9305 38.6943 23.9305C35.1247 23.9305 31.948 20.9479 31.948 16.5933V4.9585H35.2875V11.2364ZM35.3957 16.8458C35.3957 18.9189 37.0917 20.5997 39.1836 20.5997C41.2754 20.5997 42.9714 18.9189 42.9714 16.8458C42.9714 14.7726 41.2754 13.0918 39.1836 13.0918C37.0917 13.0918 35.3957 14.7726 35.3957 16.8458Z" fill="white"/>
<mask id="mask0" mask-type="alpha" maskUnits="userSpaceOnUse" x="61" y="9" width="15" height="20">
<path fill-rule="evenodd" clip-rule="evenodd" d="M75.4617 28.4795H61.2703V9.50732H75.4617V28.4795Z" fill="white"/>
</mask>
<g mask="url(#mask0)">
<path fill-rule="evenodd" clip-rule="evenodd" d="M68.0166 9.50732C71.9847 9.50732 75.4617 12.543 75.4617 16.6329C75.4617 20.6713 72.2553 23.7596 68.5268 23.7596C66.8753 23.7596 65.7232 23.2845 64.6098 22.2015V28.4797H61.2703V16.8445C61.2703 12.4899 64.447 9.50732 68.0166 9.50732ZM64.718 16.5921C64.718 18.6652 66.414 20.346 68.5062 20.346C70.5977 20.346 72.2937 18.6652 72.2937 16.5921C72.2937 14.5189 70.5977 12.8381 68.5062 12.8381C66.414 12.8381 64.718 14.5189 64.718 16.5921Z" fill="white"/>
</g>
<mask id="mask1" mask-type="alpha" maskUnits="userSpaceOnUse" x="65" y="0" width="28" height="29">
<path fill-rule="evenodd" clip-rule="evenodd" d="M65.5901 0.15625H92.4789V28.0812H65.5901V0.15625Z" fill="white"/>
</mask>
<g mask="url(#mask1)">
<path fill-rule="evenodd" clip-rule="evenodd" d="M86.2525 6.02194V9.34663C89.7773 9.88634 92.4789 12.8972 92.4789 16.5418C92.4789 20.5676 89.186 23.8313 85.1235 23.8313C83.4471 23.8313 81.9063 23.269 80.6691 22.3334L77.9437 25.0345C78.0092 25.2503 78.0548 25.4745 78.0548 25.7112C78.0548 27.0201 76.9844 28.0809 75.6637 28.0809C74.3433 28.0809 73.2725 27.0201 73.2725 25.7112C73.2725 24.4026 74.3433 23.3418 75.6637 23.3418C75.9032 23.3418 76.129 23.387 76.3468 23.4519L79.102 20.7211C78.2639 19.5373 77.7678 18.0978 77.7678 16.5418C77.7678 15.0554 78.2194 13.6747 78.9898 12.5221L69.9294 5.53674C69.5046 5.77629 69.0197 5.92368 68.4961 5.92296C66.8888 5.92117 65.5883 4.62837 65.5901 3.03578C65.5919 1.44318 66.8967 0.153971 68.5034 0.155762C70.1107 0.157915 71.4112 1.45071 71.4097 3.04295C71.4094 3.29326 71.3667 3.53138 71.3059 3.76268L80.5168 10.8636C81.4992 10.0793 82.6904 9.54637 83.9942 9.34663V6.0223C83.1185 5.6124 82.5052 4.73416 82.5052 3.71535V3.6386C82.5052 2.23249 83.666 1.08206 85.0848 1.08206H85.1619C86.5807 1.08206 87.7415 2.23249 87.7415 3.6386V3.71535C87.7415 4.73416 87.1282 5.61204 86.2525 6.02194ZM81.3523 16.5418C81.3523 18.6056 83.0407 20.2789 85.1235 20.2789C87.2063 20.2789 88.8947 18.6056 88.8947 16.5418C88.8947 14.4776 87.2063 12.8044 85.1235 12.8044C83.0407 12.8044 81.3523 14.4776 81.3523 16.5418Z" fill="#FF7A59"/>
</g>
</svg>
