<svg width="137" height="37" viewBox="0 0 137 37" fill="none" xmlns="http://www.w3.org/2000/svg">
<path d="M26.1087 17.4076C26.3776 17.3752 26.6355 17.3744 26.872 17.4076C27.009 17.093 27.0326 16.5515 26.9096 15.962C26.7261 15.0853 26.4786 14.5548 25.9665 14.6373C25.4545 14.7198 25.4353 15.3549 25.6188 16.2317C25.7219 16.7246 25.9054 17.1468 26.1094 17.4076H26.1087Z" fill="white"/>
<path d="M21.711 18.1018C22.0779 18.2624 22.3026 18.3692 22.391 18.2764C22.4477 18.2182 22.4308 18.1077 22.3431 17.9647C22.1626 17.6693 21.7898 17.3702 21.3956 17.2015C20.5881 16.8537 19.6252 16.9694 18.8825 17.5035C18.6372 17.6833 18.4051 17.9323 18.4382 18.0834C18.4493 18.132 18.4854 18.1688 18.5716 18.1814C18.7735 18.2042 19.48 17.8476 20.2942 17.7975C20.8688 17.7621 21.3448 17.9419 21.711 18.1025V18.1018V18.1018Z" fill="white"/>
<path d="M20.9734 18.5223C20.496 18.5974 20.233 18.7551 20.0635 18.9017C19.9191 19.0277 19.83 19.1669 19.8307 19.2649L19.8675 19.3519L19.9464 19.3821C20.0539 19.3821 20.2956 19.2855 20.2956 19.2855C20.9602 19.0476 21.3985 19.0763 21.8325 19.1257C22.0727 19.1529 22.1861 19.1677 22.2385 19.0851C22.2539 19.0616 22.2731 19.0107 22.2252 18.9326C22.1132 18.7514 21.6314 18.4449 20.9742 18.523L20.9734 18.5223V18.5223Z" fill="white"/>
<path d="M24.6243 20.0668C24.9484 20.226 25.305 20.1633 25.4214 19.9268C25.5379 19.6903 25.3691 19.3698 25.045 19.2107C24.7208 19.0515 24.3642 19.1142 24.2478 19.3507C24.1314 19.5872 24.3001 19.9077 24.6243 20.0668Z" fill="white"/>
<path d="M26.7077 18.2463C26.4447 18.2418 26.2259 18.5307 26.22 18.8924C26.2141 19.2534 26.4226 19.5496 26.6856 19.554C26.9486 19.5585 27.1675 19.2696 27.1734 18.9086C27.1792 18.5476 26.9707 18.2514 26.7077 18.2463V18.2463Z" fill="white"/>
<path d="M9.02012 24.7577C8.95455 24.6759 8.84698 24.7009 8.7431 24.7245C8.67016 24.7414 8.58764 24.7606 8.49775 24.7591C8.30398 24.7554 8.13968 24.6729 8.04758 24.5315C7.92749 24.3473 7.93486 24.0725 8.06674 23.7579L8.12863 23.6171C8.34008 23.1434 8.693 22.3499 8.29661 21.5947C7.99822 21.0259 7.51048 20.6715 6.92475 20.5971C6.36259 20.5256 5.78349 20.7341 5.41437 21.1416C4.83158 21.784 4.74096 22.6586 4.85368 22.968C4.89494 23.0815 4.95978 23.1124 5.0062 23.1191C5.10566 23.1323 5.25154 23.0601 5.34364 22.8133L5.37016 22.733C5.41142 22.6026 5.48731 22.3595 5.61182 22.1642C5.76212 21.9292 5.99641 21.7671 6.27197 21.7082C6.55194 21.6485 6.83854 21.7015 7.07799 21.8585C7.48617 22.1259 7.6431 22.6254 7.46922 23.1029C7.37933 23.3497 7.23272 23.8212 7.26513 24.2088C7.33071 24.9934 7.81329 25.3088 8.24651 25.3419C8.66795 25.3581 8.96265 25.1209 9.03707 24.9477C9.08127 24.8453 9.0437 24.7834 9.02012 24.7562V24.7577V24.7577Z" fill="white"/>
<path d="M33.3527 23.3225C33.3365 23.2657 33.2319 22.8834 33.0882 22.4229L32.7957 21.6382C33.3719 20.7755 33.3822 20.0041 33.3056 19.5672C33.2238 19.0256 32.9983 18.5637 32.5437 18.087C32.0892 17.6096 31.1601 17.1211 29.8538 16.7549L29.1686 16.5648C29.1649 16.5368 29.1325 14.9491 29.103 14.2676C29.0817 13.7747 29.0389 13.0062 28.8002 12.2481C28.5158 11.2225 28.0207 10.3258 27.4018 9.7519C29.1089 7.98291 30.1743 6.03341 30.1713 4.36168C30.1662 1.14641 26.2178 0.173139 21.3515 2.18821L20.3207 2.62585C20.3163 2.62143 18.4567 0.797184 18.4287 0.772871C12.8808 -4.06624 -4.46647 15.2151 1.07994 19.898L2.29193 20.925C1.97733 21.7392 1.85429 22.6726 1.95523 23.6761C2.0849 24.9647 2.74947 26.2003 3.82736 27.1552C4.85 28.0614 6.19534 28.6353 7.50016 28.6339C9.65816 33.6078 14.5894 36.6588 20.3715 36.8304C26.5737 37.0146 31.7804 34.1044 33.962 28.8763C34.105 28.5093 34.7106 26.856 34.7106 25.3965C34.7106 23.9296 33.8817 23.3217 33.3535 23.3217L33.3527 23.3225V23.3225ZM7.97685 27.2369C7.78824 27.2694 7.59594 27.2819 7.40217 27.2775C5.52856 27.2274 3.50539 25.5409 3.30425 23.5406C3.08175 21.3302 4.21122 19.6283 6.21155 19.2253C6.45026 19.1774 6.73982 19.1494 7.05147 19.1656C8.1721 19.2268 9.8232 20.0873 10.2004 22.5282C10.5342 24.6899 10.0037 26.8914 7.97685 27.2369V27.2369ZM5.88516 17.9028C4.64002 18.1452 3.54297 18.8503 2.87177 19.825C2.47097 19.4905 1.72314 18.8429 1.59126 18.5909C0.519997 16.5567 2.76052 12.6017 4.32542 10.3686C8.19346 4.84869 14.2512 0.671196 17.0561 1.4286C17.5121 1.55753 19.0218 3.3081 19.0218 3.3081C19.0218 3.3081 16.2184 4.86342 13.619 7.03174C10.1164 9.72906 7.46996 13.6487 5.88516 17.9028V17.9028ZM25.5481 26.4103C25.5886 26.3933 25.6166 26.3462 25.6122 26.3005C25.6063 26.2438 25.5555 26.2025 25.4987 26.2084C25.4987 26.2084 22.5642 26.6431 19.7917 25.6278C20.0938 24.6465 20.8969 25.0008 22.1103 25.0988C24.2978 25.2292 26.2583 24.9095 27.7068 24.4939C28.9623 24.1337 30.6112 23.4234 31.8924 22.4126C32.3242 23.3615 32.4767 24.4055 32.4767 24.4055C32.4767 24.4055 32.8112 24.3459 33.0904 24.5175C33.3542 24.6803 33.548 25.0178 33.4161 25.8916C33.1464 27.5235 32.4531 28.8475 31.2875 30.0661C30.578 30.8302 29.7167 31.494 28.731 31.9766C28.2078 32.2514 27.6501 32.4894 27.0614 32.6817C22.6673 34.1169 18.1686 32.5387 16.7186 29.1503C16.603 28.8954 16.505 28.6287 16.4276 28.3502C15.8095 26.117 16.334 23.4381 17.9741 21.7517V21.7509C18.075 21.6434 18.1782 21.5174 18.1782 21.3582C18.1782 21.2249 18.0935 21.0849 18.0205 20.9854C17.4466 20.1536 15.4595 18.7353 15.8588 15.9909C16.1454 14.0193 17.8695 12.6312 19.4771 12.7137L19.8845 12.7373C20.5808 12.7786 21.1886 12.8677 21.7626 12.892C22.7226 12.9333 23.5853 12.794 24.6072 11.9423C24.9521 11.655 25.2283 11.4059 25.6962 11.3264C25.7456 11.3183 25.8679 11.2741 26.1117 11.2859C26.3615 11.2991 26.5987 11.3676 26.8124 11.5098C27.6317 12.055 27.7481 13.3761 27.7908 14.342C27.8151 14.8938 27.8815 16.2281 27.9043 16.6105C27.9566 17.4865 28.1865 17.6096 28.6521 17.7635C28.9144 17.8497 29.1575 17.9138 29.5156 18.0148C30.6001 18.3191 31.2433 18.6285 31.6493 19.0249C31.891 19.2732 32.0037 19.5362 32.0383 19.7882C32.1665 20.7217 31.3141 21.874 29.0573 22.9217C26.5906 24.0666 23.5986 24.3562 21.5312 24.1263L20.807 24.0445C19.1529 23.822 18.2099 25.9594 19.2023 27.4233C19.8418 28.3671 21.5843 28.9809 23.3275 28.9816C27.3245 28.9823 30.3968 27.2753 31.5395 25.801L31.6309 25.6706C31.6869 25.5858 31.6405 25.5394 31.5705 25.5873C30.637 26.2261 26.4897 28.7628 22.0536 27.9995C22.0536 27.9995 21.5143 27.9111 21.0229 27.7195C20.6316 27.5677 19.8138 27.1913 19.7143 26.3513C23.2943 27.4587 25.5481 26.4118 25.5481 26.4118V26.4103V26.4103ZM19.8772 25.7406L19.8779 25.7413L19.8787 25.7428L19.8772 25.7398V25.7406V25.7406ZM13.0289 10.345C14.4037 8.75578 16.0968 7.37434 17.6131 6.59852C17.6654 6.57199 17.7214 6.62872 17.6927 6.6803C17.5726 6.89838 17.3405 7.3655 17.2668 7.71915C17.255 7.7744 17.3154 7.81566 17.3618 7.78398C18.3049 7.14078 19.9464 6.4519 21.3861 6.36349C21.448 6.3598 21.4774 6.43864 21.4288 6.47695C21.21 6.64493 20.9705 6.87702 20.7959 7.11205C20.7665 7.15183 20.7945 7.2093 20.8438 7.21004C21.8547 7.2174 23.2796 7.57105 24.2079 8.09195C24.2705 8.12732 24.2263 8.24888 24.1556 8.23267C22.7506 7.91071 20.4504 7.6661 18.061 8.24888C15.9281 8.76904 14.2998 9.57212 13.1121 10.4364C13.0525 10.4798 12.9803 10.401 13.0289 10.3443V10.345V10.345Z" fill="white"/>
<path d="M132.605 14.0814C130.55 14.0814 129.608 15.6228 129.198 16.5002C128.928 17.0801 128.941 17.2503 128.744 17.2503C128.458 17.2503 128.695 16.7846 128.823 16.2365C129.077 15.1579 128.884 14.3341 128.884 14.3341H125.954V28.391H129.953V23.9343C130.426 24.7366 131.303 25.5942 132.654 25.5942C135.545 25.5942 137 23.1474 137 19.8422C137 16.0958 135.258 14.08 132.605 14.08L132.605 14.0814ZM131.508 22.9853C130.59 22.9853 129.916 21.8227 129.916 20.2018C129.916 18.628 130.609 17.419 131.476 17.419C132.588 17.419 133.063 18.4394 133.063 20.2018C133.063 22.0349 132.626 22.9853 131.508 22.9853Z" fill="white"/>
<path d="M53.1276 14.0808C51.3689 14.0808 50.4988 15.4652 50.0995 16.3574C49.8762 16.8562 49.8144 17.2504 49.6331 17.2504C49.3782 17.2504 49.5609 16.9078 49.3524 16.1482C49.0776 15.1484 48.2509 14.0808 46.493 14.0808C44.6452 14.0808 43.8539 15.642 43.4789 16.4996C43.2225 17.0861 43.2217 17.2497 43.0243 17.2497C42.7384 17.2497 42.9757 16.784 43.1038 16.2359C43.3573 15.1572 43.1643 14.3335 43.1643 14.3335H40.2349V25.3482H44.2333V19.8681C44.2333 18.7873 44.6857 17.4154 45.4608 17.4154C46.356 17.4154 46.5357 18.1036 46.5357 19.3767V25.3512H50.5504V19.8681C50.5504 18.9059 50.9431 17.4154 51.7837 17.4154C52.6914 17.4154 52.8528 18.3813 52.8528 19.3767V25.3482H56.7953V18.8706C56.7953 15.9957 55.7822 14.0793 53.1284 14.0793L53.1276 14.0808ZM120.995 14.0808C119.236 14.0808 118.366 15.4652 117.966 16.3574C117.743 16.8562 117.681 17.2504 117.5 17.2504C117.245 17.2504 117.415 16.815 117.219 16.1482C116.926 15.1535 116.197 14.0808 114.36 14.0808C112.512 14.0808 111.721 15.642 111.346 16.4996C111.089 17.0861 111.089 17.2497 110.891 17.2497C110.605 17.2497 110.843 16.784 110.971 16.2359C111.224 15.1572 111.031 14.3335 111.031 14.3335H108.102V25.3482H112.1V19.8681C112.1 18.7873 112.553 17.4154 113.328 17.4154C114.223 17.4154 114.403 18.1036 114.403 19.3767V25.3512H118.417V19.8681C118.417 18.9059 118.81 17.4154 119.651 17.4154C120.558 17.4154 120.72 18.3813 120.72 19.3767V25.3482H124.662V18.8706C124.662 15.9957 123.649 14.0793 120.995 14.0793L120.995 14.0808V14.0808ZM63.6214 14.083C60.5587 14.083 58.3609 15.2088 58.3609 15.2088V18.5191C58.3609 18.5191 60.7878 17.1237 62.7565 17.1237C64.328 17.1237 64.521 17.971 64.4496 18.6746C64.4496 18.6746 63.9965 18.5545 62.6135 18.5545C59.3548 18.5545 57.7096 20.0354 57.7096 22.4107C57.7096 24.6638 59.5582 25.6054 61.1164 25.6054C63.3894 25.6054 64.3884 24.0781 64.6957 23.3531C64.9086 22.8506 64.9476 22.5117 65.1392 22.5117C65.3573 22.5117 65.2836 22.7548 65.2733 23.2551C65.2549 24.1311 65.2961 24.7942 65.4354 25.3519H68.4488V19.9308C68.4488 16.546 67.2515 14.083 63.6222 14.083H63.6214V14.083ZM62.6482 22.7747C61.6918 22.9957 61.1967 22.701 61.1967 22.0674C61.1967 21.1995 62.0949 20.8517 63.3761 20.8517C63.9412 20.8517 64.4724 20.9004 64.4724 20.9004C64.4724 21.2724 63.6656 22.5404 62.6482 22.7747ZM75.0348 10.9996H79.0332V25.3519H75.0348V10.9996V10.9996ZM83.4339 19.8438C83.4339 18.8536 84.3542 17.9525 86.0428 17.9525C87.8833 17.9525 89.3635 18.8389 89.6958 19.04V15.2088C89.6958 15.2088 88.5265 14.083 85.6516 14.083C82.6213 14.083 80.0978 15.8564 80.0978 19.6729C80.0978 23.4894 82.3877 25.6054 85.6435 25.6054C88.1861 25.6054 89.7024 24.2085 89.7024 24.2085V20.5695C89.2228 20.8377 87.8863 21.7653 86.0613 21.7653C84.1287 21.7653 83.4332 20.876 83.4332 19.8446L83.4339 19.8438V19.8438ZM97.7958 14.083C95.4809 14.083 94.6004 16.2764 94.4229 16.6573C94.2453 17.0382 94.1569 17.257 94.0118 17.2526C93.7591 17.2445 93.9351 16.7848 94.0339 16.4878C94.2203 15.9257 94.6144 14.4521 94.6144 12.6397C94.6144 11.4108 94.4479 10.9996 94.4479 10.9996H90.9962V25.3519H94.9946V19.8718C94.9946 18.9789 95.3505 17.4191 96.3584 17.4191C97.1924 17.4191 97.454 18.0373 97.454 19.2824V25.3527H101.452V19.5226C101.452 16.6949 100.984 14.0845 97.7958 14.0845V14.083V14.083ZM102.752 14.349V25.3512H106.751V14.349C106.751 14.349 106.079 14.7424 104.755 14.7424C103.432 14.7424 102.752 14.349 102.752 14.349Z" fill="white"/>
<path d="M104.74 14.0836C106.092 14.0836 107.188 13.3684 107.188 12.4862C107.188 11.6041 106.092 10.8889 104.74 10.8889C103.388 10.8889 102.292 11.6041 102.292 12.4862C102.292 13.3684 103.388 14.0836 104.74 14.0836Z" fill="white"/>
<path d="M69.7418 14.3492V25.3514H73.7403V14.3492C73.7403 14.3492 73.0683 14.7427 71.7451 14.7427L69.7418 14.3492V14.3492Z" fill="white"/>
<path d="M71.7295 14.0836C73.0813 14.0836 74.1771 13.3684 74.1771 12.4862C74.1771 11.6041 73.0813 10.8889 71.7295 10.8889C70.3778 10.8889 69.282 11.6041 69.282 12.4862C69.282 13.3684 70.3778 14.0836 71.7295 14.0836Z" fill="white"/>
</svg>
