<svg width="116" height="34" viewBox="0 0 116 34" fill="none" xmlns="http://www.w3.org/2000/svg">
<path d="M24.9397 6.29178C24.9208 6.12122 24.7692 6.04541 24.6554 6.04541C24.5417 6.04541 22.0591 5.8559 22.0591 5.8559C22.0591 5.8559 20.3346 4.13135 20.1261 3.96079C19.9366 3.77128 19.5765 3.82813 19.4249 3.86603C19.406 3.86603 19.0459 3.97974 18.4584 4.16925C17.8709 2.4826 16.8665 0.947557 15.0662 0.947557H14.8956C14.4029 0.303218 13.7585 0 13.2279 0C9.05865 0 7.04983 5.21157 6.42444 7.86473C4.79464 8.37641 3.63862 8.71753 3.50596 8.77438C2.59631 9.05865 2.57736 9.0776 2.46365 9.9304C2.36889 10.5747 0 28.9005 0 28.9005L18.4395 32.3496L28.4457 30.1892C28.4646 30.1513 24.9587 6.46234 24.9397 6.29178ZM17.4351 4.43457C16.9802 4.56723 16.4306 4.73779 15.8811 4.9273V4.58617C15.8811 3.56281 15.7484 2.72896 15.502 2.06567C16.4496 2.17938 17.0371 3.22169 17.4351 4.43457ZM14.346 2.27414C14.5924 2.91848 14.7629 3.82813 14.7629 5.07891V5.26842C13.7396 5.59059 12.6594 5.91275 11.5412 6.27283C12.1666 3.88498 13.3606 2.71001 14.346 2.27414ZM13.1331 1.09916C13.3227 1.09916 13.5122 1.17497 13.6638 1.28868C12.3182 1.91406 10.8969 3.48701 10.3094 6.6708C9.41872 6.95507 8.56592 7.20144 7.75102 7.46675C8.43326 5.041 10.1389 1.09916 13.1331 1.09916V1.09916Z" fill="#95BF47"/>
<path d="M24.6555 6.00742C24.5418 6.00742 22.0592 5.8179 22.0592 5.8179C22.0592 5.8179 20.3346 4.09335 20.1261 3.92279C20.0503 3.84699 19.9556 3.80908 19.8798 3.80908L18.4963 32.3495L28.5025 30.1891C28.5025 30.1891 24.9966 6.46224 24.9776 6.29168C24.9018 6.12112 24.7692 6.04532 24.6555 6.00742V6.00742Z" fill="#5E8E3E"/>
<path d="M15.0662 11.5412L13.8534 15.1988C13.8534 15.1988 12.7542 14.6113 11.4466 14.6113C9.49459 14.6113 9.39983 15.8431 9.39983 16.1463C9.39983 17.814 13.7586 18.4584 13.7586 22.3813C13.7586 25.4703 11.8066 27.4602 9.17242 27.4602C5.98862 27.4602 4.39673 25.4893 4.39673 25.4893L5.24953 22.6845C5.24953 22.6845 6.91723 24.1248 8.31962 24.1248C9.24822 24.1248 9.62725 23.4046 9.62725 22.874C9.62725 20.6946 6.06443 20.5999 6.06443 16.9991C6.06443 13.9859 8.22486 11.0674 12.6026 11.0674C14.2324 11.0485 15.0662 11.5412 15.0662 11.5412V11.5412Z" fill="white"/>
<path d="M40.1196 18.4205C39.1152 17.8899 38.6035 17.4161 38.6035 16.7907C38.6035 15.9947 39.3237 15.4831 40.4418 15.4831C41.7494 15.4831 42.9054 16.0137 42.9054 16.0137L43.8151 13.2279C43.8151 13.2279 42.9812 12.5835 40.5176 12.5835C37.0874 12.5835 34.6996 14.5545 34.6996 17.3213C34.6996 18.8943 35.8177 20.0882 37.2959 20.941C38.5088 21.6043 38.9257 22.097 38.9257 22.8172C38.9257 23.5562 38.3193 24.1627 37.2011 24.1627C35.5524 24.1627 33.9794 23.3099 33.9794 23.3099L33.0129 26.0957C33.0129 26.0957 34.4532 27.0622 36.879 27.0622C40.4039 27.0622 42.9623 25.3187 42.9623 22.1918C42.9244 20.4862 41.6547 19.3112 40.1196 18.4205V18.4205ZM54.1814 12.5456C52.4379 12.5456 51.0734 13.3795 50.0311 14.6303L49.9932 14.6113L51.5093 6.72763H47.5864L43.7582 26.8158H47.6811L48.9888 19.9555C49.5004 17.3592 50.846 15.7484 52.0967 15.7484C52.9874 15.7484 53.3286 16.3548 53.3286 17.2076C53.3286 17.7382 53.2907 18.4205 53.158 18.9511L51.6798 26.8158H55.6027L57.1377 18.7047C57.3083 17.8519 57.422 16.8286 57.422 16.1274C57.4031 13.8722 56.247 12.5456 54.1814 12.5456V12.5456ZM66.2912 12.5456C61.5534 12.5456 58.4264 16.8096 58.4264 21.5664C58.4264 24.5986 60.3026 27.0622 63.8275 27.0622C68.4705 27.0622 71.5975 22.9119 71.5975 18.0415C71.6164 15.2177 69.9866 12.5456 66.2912 12.5456ZM64.3581 24.0679C63.0126 24.0679 62.463 22.9309 62.463 21.4906C62.463 19.2354 63.619 15.5778 65.7605 15.5778C67.144 15.5778 67.6177 16.7907 67.6177 17.9467C67.6177 20.3535 66.4238 24.0679 64.3581 24.0679ZM81.6605 12.5456C79.0074 12.5456 77.5102 14.8956 77.5102 14.8956H77.4723L77.6997 12.792H74.2127C74.0422 14.2133 73.72 16.3927 73.4168 18.0036L70.7068 32.3875H74.6297L75.7288 26.5695H75.8236C75.8236 26.5695 76.6385 27.0812 78.1167 27.0812C82.7408 27.0812 85.754 22.3434 85.754 17.5677C85.735 14.9145 84.5411 12.5456 81.6605 12.5456V12.5456ZM77.9082 24.1058C76.8848 24.1058 76.2784 23.5183 76.2784 23.5183L76.9227 19.8608C77.3776 17.3971 78.6663 15.7863 80.0307 15.7863C81.2436 15.7863 81.6037 16.9044 81.6037 17.9467C81.6226 20.4862 80.1065 24.1058 77.9082 24.1058V24.1058ZM91.3446 6.91714C90.0938 6.91714 89.0894 7.92155 89.0894 9.19128C89.0894 10.3473 89.8285 11.1622 90.9466 11.1622H90.9845C92.2163 11.1622 93.2586 10.3283 93.2776 8.88806C93.2965 7.73204 92.5195 6.91714 91.3446 6.91714V6.91714ZM85.8487 26.7969H89.7716L92.4248 12.8488H88.4829L85.8487 26.7969ZM102.431 12.8299H99.702L99.8347 12.1856C100.062 10.84 100.858 9.66505 102.185 9.66505C102.886 9.66505 103.435 9.87351 103.435 9.87351L104.193 6.78448C104.193 6.78448 103.53 6.44336 102.052 6.44336C100.669 6.44336 99.2661 6.84133 98.2049 7.75099C96.8594 8.88806 96.234 10.5368 95.9308 12.2045L95.817 12.8488H93.9788L93.3913 15.8242H95.2296L93.1449 26.8158H97.0678L99.1524 15.8242H101.862L102.431 12.8299V12.8299ZM111.888 12.8488C111.888 12.8488 109.424 19.0459 108.344 22.4381H108.306C108.23 21.339 107.339 12.8488 107.339 12.8488H103.208L105.577 25.6219C105.615 25.9062 105.596 26.0767 105.482 26.2663C105.027 27.157 104.25 28.0098 103.341 28.6352C102.602 29.1658 101.768 29.5259 101.104 29.7533L102.204 33.0887C103 32.9181 104.667 32.2548 106.051 30.9472C107.832 29.2795 109.5 26.6832 111.205 23.1583L116 12.8299H111.888V12.8488Z" fill="white"/>
</svg>
