<?xml version="1.0" encoding="UTF-8"?>
<svg width="128px" height="17px" viewBox="0 0 128 17" version="1.1" xmlns="http://www.w3.org/2000/svg" xmlns:xlink="http://www.w3.org/1999/xlink">
    <!-- Generator: Sketch 53 (72520) - https://sketchapp.com -->
    <title>TechCrunch SVG</title>
    <desc>Created with Sketch.</desc>
    <g id="Pages" stroke="none" stroke-width="1" fill="none" fill-rule="evenodd">
        <g id="TechCrunch-SVG" fill="#978A7F" fill-rule="nonzero">
            <path d="M21.8002304,5.77669903 L32.5423729,5.77669903 L32.5423729,0 L21.6809795,0 L21.6809795,5.61165049 L16.2711864,5.61165049 L16.2711864,17 L32.5423729,17 L32.5423729,11.223301 L21.8002304,11.223301 L21.8002304,5.77669903 Z M10.9001152,5.77669903 L16.2711864,5.77669903 L16.2711864,0 L0,0 L0,5.77669903 L5.37107125,5.77669903 L5.37107125,17 L10.9001152,17 L10.9001152,5.77669903 Z" id="Combined-Shape"></path>
            <path d="M44.8458004,16.0224056 L44.8458004,5.97023167 L41.220339,5.97023167 L41.220339,3.84239924 L51.0090847,3.84239924 L51.0090847,5.97023167 L47.365496,5.97023167 L47.365496,16.0224056 L44.8458004,16.0224056 Z M55.3415111,10.629451 C55.3294262,10.2992685 55.2720236,10.0088345 55.1693017,9.75814027 C55.0665798,9.50744604 54.9306263,9.29955649 54.7614373,9.13446525 C54.5922482,8.969374 54.3988922,8.84708601 54.1813635,8.76759759 C53.9638347,8.68810917 53.7402668,8.6483656 53.5106531,8.6483656 C53.0393408,8.6483656 52.6314804,8.82262598 52.2870599,9.17115202 C51.9426393,9.51967805 51.7462621,10.0057728 51.6979224,10.629451 L55.3415111,10.629451 Z M51.6254132,12.1336084 C51.661668,12.8184315 51.8580452,13.362613 52.2145507,13.7661695 C52.5710561,14.169726 53.0393402,14.3715011 53.6194169,14.3715011 C54.0061348,14.3715011 54.347529,14.2828423 54.6436098,14.1055221 C54.9396906,13.9282018 55.1300254,13.6805686 55.21462,13.362615 L57.6436791,13.362615 C57.3657257,14.2920178 56.8823356,15.0074026 56.1934945,15.5087909 C55.5046534,16.0101792 54.6828904,16.2608696 53.7281808,16.2608696 C50.7552876,16.2608696 49.2688633,14.6222103 49.2688633,11.3448429 C49.2688633,10.6477908 49.3655413,10.0180076 49.5589002,9.45547445 C49.7522591,8.89294127 50.0332295,8.40990369 50.40182,8.00634719 C50.7704104,7.60279069 51.2205673,7.29401349 51.7523043,7.08000635 C52.2840413,6.8659992 52.8943212,6.75899714 53.5831623,6.75899714 C54.9608446,6.75899714 56.0031543,7.20534828 56.7101228,8.09806411 C57.4170912,8.99077993 57.7705702,10.3359479 57.7705702,12.1336084 L51.6254132,12.1336084 Z M66.5260595,12.7572834 C66.4656349,13.2831297 66.3175966,13.7600528 66.0819405,14.1880673 C65.8462844,14.6160817 65.5471867,14.9829457 65.1846388,15.2886703 C64.8220909,15.5943948 64.4081881,15.8328564 63.9429183,16.0040622 C63.4776485,16.175268 62.97311,16.2608696 62.4292881,16.2608696 C61.8250416,16.2608696 61.2721643,16.1599819 60.7706395,15.9582037 C60.2691148,15.7564256 59.837085,15.4507055 59.4745371,15.0410346 C59.1119892,14.6313637 58.8310186,14.1238685 58.6316173,13.5185338 C58.432216,12.9131991 58.3325168,12.2069859 58.3325168,11.3998731 C58.3325168,10.5927602 58.432216,9.89571852 58.6316173,9.30872739 C58.8310186,8.72173626 59.1119892,8.2417558 59.4745371,7.86877182 C59.837085,7.49578784 60.2751572,7.21758268 60.7887669,7.03414789 C61.3023765,6.8507131 61.8733809,6.75899714 62.5017974,6.75899714 C63.081874,6.75899714 63.610582,6.83848429 64.0879367,6.99746112 C64.5652915,7.15643796 64.9822154,7.38878514 65.3387209,7.69450968 C65.6952264,8.00023422 65.9761968,8.36709821 66.1816407,8.79511266 C66.3870845,9.22312711 66.507932,9.70005029 66.5441868,10.2258965 L64.1695096,10.2258965 C64.109085,9.76119516 63.9247925,9.39738846 63.6166267,9.13446525 C63.3084609,8.87154204 62.9308126,8.74008251 62.4836701,8.74008251 C62.2298865,8.74008251 61.9942339,8.78288337 61.7767051,8.86848619 C61.5591763,8.95408902 61.3688415,9.09777753 61.2056949,9.2995557 C61.0425484,9.50133387 60.9126372,9.77036749 60.8159578,10.1066646 C60.7192784,10.4429616 60.6709394,10.8556836 60.6709394,11.3448429 C60.6709394,12.3353905 60.8461683,13.0691185 61.1966313,13.5460489 C61.5470942,14.0229792 61.9519334,14.2614408 62.4111608,14.2614408 C62.8703883,14.2614408 63.2631427,14.1330384 63.5894358,13.8762298 C63.9157289,13.6194211 64.1030426,13.2464427 64.1513823,12.7572834 L66.5260595,12.7572834 Z M72.8343623,16.0224056 L72.8343623,10.4276738 C72.8343623,9.74285066 72.7165359,9.27509918 72.4808798,9.02440495 C72.2452238,8.77371072 71.8554904,8.6483656 71.3116685,8.6483656 C71.0216302,8.6483656 70.7618081,8.70645239 70.5321944,8.82262774 C70.3025806,8.93880308 70.1092247,9.09777753 69.9521205,9.2995557 C69.7950164,9.50133387 69.6771901,9.73368105 69.598638,9.99660425 C69.520086,10.2595275 69.4808105,10.543847 69.4808105,10.8495716 L69.4808105,16.0224056 L67.1242606,16.0224056 L67.1242606,3.69565217 L69.4808105,3.69565217 L69.4808105,8.17143764 C69.565405,7.97577388 69.6953162,7.78928468 69.8705476,7.61196446 C70.0457791,7.43464424 70.2481987,7.28484148 70.4778124,7.16255157 C70.7074261,7.04026182 70.9612059,6.94243129 71.2391593,6.86905744 C71.5171127,6.79568359 71.8071468,6.75899714 72.1092701,6.75899714 C73.0277249,6.75899714 73.7739582,7.01274467 74.3479925,7.52024754 C74.9220267,8.02775041 75.2090395,8.73396348 75.2090395,9.63890828 L75.2090395,16.0224056 L72.8343623,16.0224056 Z" id="Tech"></path>
            <path d="M86.7697616,12.2899982 C86.6357382,13.0030698 86.4225226,13.6473265 86.1301081,14.2227878 C85.8376936,14.798249 85.469135,15.2923877 85.0244213,15.7052186 C84.5797076,16.1180496 84.0649439,16.4370504 83.4801149,16.6622309 C82.895286,16.8874115 82.249547,17 81.5428786,17 C80.7509227,17 80.0107595,16.8623917 79.3223671,16.5871712 C78.6339746,16.3119506 78.0400165,15.8991258 77.5404751,15.3486846 C77.0409337,14.7982434 76.6480076,14.1195846 76.361685,13.3126878 C76.0753625,12.505791 75.9322034,11.5644255 75.9322034,10.4885632 C75.9322034,9.43772091 76.0631787,8.49010052 76.3251334,7.64567364 C76.5870881,6.80124675 76.9617385,6.08818593 77.449096,5.50646961 C77.9364535,4.9247533 78.5304116,4.47752651 79.230988,4.16477586 C79.9315643,3.85202521 80.7143706,3.69565217 81.5794302,3.69565217 C82.3348343,3.69565217 83.0201705,3.81136826 83.6354594,4.0428037 C84.2507482,4.27423915 84.7807416,4.59324015 85.2254553,4.99981603 C85.6701689,5.40639191 86.0234978,5.88489334 86.2854525,6.43533452 C86.5474072,6.9857757 86.708842,7.57373829 86.7697616,8.19923959 L84.2294233,8.19923959 C84.0588482,7.48616799 83.7298868,6.93260759 83.2425293,6.53854173 C82.7551718,6.14447587 82.206903,5.94744588 81.597706,5.94744588 C80.5377035,5.94744588 79.7579431,6.33837832 79.2584017,7.12025511 C78.7588603,7.90213189 78.5090933,8.97485068 78.5090933,10.3384436 C78.5090933,11.7270567 78.7558142,12.8060303 79.2492638,13.5753971 C79.7427133,14.3447638 80.4828764,14.7294413 81.4697753,14.7294413 C82.2251794,14.7294413 82.8313213,14.5199015 83.2882189,14.1008156 C83.7451165,13.6817297 84.0588482,13.0781299 84.2294233,12.2899982 L86.7697616,12.2899982 Z M87.2449328,16.5684062 L87.2449328,7.336052 L89.4745822,7.336052 L89.4745822,8.44318391 C89.6695253,8.13043326 89.8736032,7.88649139 90.086822,7.71135095 C90.3000409,7.53621052 90.5193486,7.40172981 90.7447514,7.30790458 C90.9701541,7.21407935 91.1985996,7.15465762 91.4300944,7.12963758 C91.6615892,7.10461754 91.8991724,7.09210768 92.1428512,7.09210768 L92.45354,7.09210768 L92.45354,9.58784571 C92.2342292,9.55031565 92.0149216,9.53155087 91.7956107,9.53155087 C90.3457221,9.53155087 89.6207887,10.2758863 89.6207887,11.7645796 L89.6207887,16.5684062 L87.2449328,16.5684062 Z M98.8500753,16.5684062 L98.8500753,15.2736248 C98.2408785,16.2994471 97.3088211,16.8123505 96.0538756,16.8123505 C95.6030699,16.8123505 95.1918682,16.7310366 94.8202581,16.5684062 C94.448648,16.4057758 94.1288244,16.1743438 93.8607778,15.8741031 C93.5927312,15.5738625 93.3825614,15.2173321 93.2302622,14.8045011 C93.077963,14.3916702 93.0018145,13.9288061 93.0018145,13.415895 L93.0018145,7.336052 L95.3776704,7.336052 L95.3776704,13.0405961 C95.3776704,14.1915187 95.8832963,14.7669712 96.8945631,14.7669712 C97.5037599,14.7669712 97.9636966,14.5699412 98.2743871,14.1758754 C98.5850775,13.7818095 98.7404204,13.2782884 98.7404204,12.6652971 L98.7404204,7.336052 L101.098,7.336052 L101.098,16.5684062 L98.8500753,16.5684062 Z M107.805225,16.5684062 L107.805225,10.9764518 C107.805225,10.2633802 107.689479,9.78175142 107.457984,9.53155087 C107.226489,9.28135032 106.830517,9.15625192 106.270056,9.15625192 C105.039478,9.15625192 104.424199,9.86305782 104.424199,11.276691 L104.424199,16.5684062 L102.048343,16.5684062 L102.048343,7.336052 L104.314544,7.336052 L104.314544,8.68712823 C104.594774,8.16170708 104.966379,7.76451972 105.429369,7.49555406 C105.892358,7.22658839 106.489362,7.09210768 107.220398,7.09210768 C107.646836,7.09210768 108.042808,7.15778435 108.408326,7.28913963 C108.773845,7.42049492 109.087576,7.61752491 109.349531,7.88023548 C109.611486,8.14294605 109.818609,8.46507444 109.970909,8.84663028 C110.123208,9.22818612 110.199356,9.66915798 110.199356,10.1695591 L110.199356,16.5684062 L107.805225,16.5684062 Z M119.245885,13.2282455 C119.184965,13.7661767 119.035714,14.2540604 118.798127,14.6919114 C118.56054,15.1297625 118.258993,15.5050577 117.893474,15.8178083 C117.527956,16.130559 117.110663,16.3745008 116.641581,16.5496413 C116.1725,16.7247817 115.663828,16.8123505 115.115551,16.8123505 C114.506354,16.8123505 113.948947,16.7091443 113.443313,16.5027289 C112.93768,16.2963135 112.502111,15.9835674 112.136593,15.5644815 C111.771074,15.1453956 111.487802,14.6262372 111.286767,14.0069909 C111.085732,13.3877445 110.985216,12.6653012 110.985216,11.8396394 C110.985216,11.0139776 111.085732,10.3009167 111.286767,9.7004354 C111.487802,9.09995414 111.771074,8.60894285 112.136593,8.22738701 C112.502111,7.84583117 112.943772,7.56123235 113.461589,7.3735819 C113.979407,7.18593144 114.555089,7.09210768 115.188654,7.09210768 C115.773483,7.09210768 116.306522,7.17342159 116.787788,7.336052 C117.269053,7.49868242 117.689393,7.73636936 118.048819,8.04912001 C118.408245,8.36187066 118.691517,8.73716586 118.898644,9.17501686 C119.105771,9.61286787 119.227609,10.1007516 119.26416,10.6386828 L116.870029,10.6386828 C116.809109,10.1633017 116.623307,9.79113406 116.312616,9.52216839 C116.001926,9.25320273 115.621184,9.11872202 115.170378,9.11872202 C114.914515,9.11872202 114.676932,9.16250652 114.457621,9.25007665 C114.23831,9.33764679 114.046416,9.48463752 113.881933,9.69105292 C113.71745,9.89746832 113.586474,10.1726848 113.489003,10.5167106 C113.391532,10.8607364 113.342796,11.2829435 113.342796,11.7833446 C113.342796,12.7966568 113.519461,13.5472472 113.872795,14.0351383 C114.226129,14.5230294 114.634285,14.7669712 115.097275,14.7669712 C115.560264,14.7669712 115.956236,14.6356179 116.285203,14.3729073 C116.614169,14.1101968 116.803017,13.7286466 116.851753,13.2282455 L119.245885,13.2282455 Z M125.605868,16.5684062 L125.605868,10.8450972 C125.605868,10.1445356 125.487077,9.66603435 125.24949,9.40957871 C125.011903,9.15312307 124.618977,9.02489728 124.0707,9.02489728 C123.778285,9.02489728 123.516335,9.08431902 123.28484,9.20316429 C123.053345,9.32200955 122.858405,9.48463752 122.700014,9.69105292 C122.541622,9.89746832 122.422831,10.1351553 122.343635,10.4041209 C122.26444,10.6730866 122.224842,10.9639403 122.224842,11.276691 L122.224842,16.5684062 L119.848987,16.5684062 L119.848987,3.95836144 L122.224842,3.95836144 L122.224842,8.53700865 C122.31013,8.33684817 122.441105,8.14607311 122.617773,7.96467775 C122.79444,7.78328238 122.998517,7.63003689 123.230012,7.50493653 C123.461507,7.37983634 123.717366,7.27975749 123.997597,7.20469737 C124.277827,7.12963725 124.570237,7.09210768 124.874836,7.09210768 C125.800815,7.09210768 126.553162,7.35168679 127.131899,7.87085301 C127.710636,8.39001922 128,9.11246236 128,10.0382045 L128,16.5684062 L125.605868,16.5684062 Z" id="Crunch"></path>
        </g>
    </g>
</svg>