<?xml version="1.0" encoding="UTF-8" standalone="no"?><!DOCTYPE svg PUBLIC "-//W3C//DTD SVG 1.1//EN" "http://www.w3.org/Graphics/SVG/1.1/DTD/svg11.dtd"><svg width="100%" height="100%" viewBox="0 0 146 34" version="1.1" xmlns="http://www.w3.org/2000/svg" xmlns:xlink="http://www.w3.org/1999/xlink" xml:space="preserve" xmlns:serif="http://www.serif.com/" style="fill-rule:evenodd;clip-rule:evenodd;stroke-linejoin:round;stroke-miterlimit:1.41421;"><g><path d="M84.677,13.039l-5.747,0l0,0.61c1.798,0 2.087,0.385 2.087,2.665l0,4.11c0,2.279 -0.289,2.697 -2.087,2.697c-1.38,-0.193 -2.312,-0.931 -3.596,-2.344l-1.477,-1.605c1.991,-0.354 3.05,-1.606 3.05,-3.019c0,-1.765 -1.508,-3.114 -4.334,-3.114l-5.651,0l0,0.61c1.798,0 2.087,0.385 2.087,2.665l0,4.11c0,2.279 -0.289,2.697 -2.087,2.697l0,0.61l6.389,0l0,-0.61c-1.797,0 -2.086,-0.418 -2.086,-2.697l0,-1.156l0.545,0l3.564,4.463l9.343,0c4.591,0 6.582,-2.44 6.582,-5.362c0,-2.922 -1.99,-5.33 -6.582,-5.33Zm-13.452,5.233l0,-4.269l1.316,0c1.444,0 2.087,0.995 2.087,2.151c0,1.124 -0.643,2.119 -2.087,2.119l-1.316,0l0,-0.001Zm13.549,4.464l-0.225,0c-1.156,0 -1.316,-0.289 -1.316,-1.766l0,-6.967l1.541,0c3.339,0 3.949,2.439 3.949,4.334c0,1.958 -0.61,4.398 -3.949,4.398l0,0.001Z" style="fill-rule:nonzero;"/><path d="M49.039,19.461l2.216,-6.551c0.642,-1.894 0.353,-2.439 -1.702,-2.439l0,-0.643l6.036,0l0,0.643c-2.022,0 -2.504,0.481 -3.307,2.825l-3.66,10.981l-0.417,0l-3.276,-10.05l-3.338,10.05l-0.418,0l-3.564,-10.981c-0.77,-2.344 -1.284,-2.825 -3.146,-2.825l0,-0.643l7.128,0l0,0.643c-1.895,0 -2.409,0.449 -1.734,2.44l2.151,6.55l3.243,-9.633l0.61,0l3.178,9.633Z" style="fill-rule:nonzero;"/><path d="M59.955,24.148c-3.531,0 -6.421,-2.601 -6.421,-5.78c0,-3.146 2.89,-5.747 6.421,-5.747c3.532,0 6.422,2.601 6.422,5.747c0,3.179 -2.89,5.78 -6.422,5.78Zm0,-10.531c-2.953,0 -3.981,2.665 -3.981,4.752c0,2.119 1.028,4.752 3.981,4.752c2.987,0 4.014,-2.633 4.014,-4.752c0,-2.087 -1.027,-4.752 -4.014,-4.752Z" style="fill-rule:nonzero;"/><path d="M99.189,23.088l0,0.642l-7.352,0l0,-0.642c2.151,0 2.536,-0.545 2.536,-3.756l0,-5.137c0,-3.211 -0.385,-3.725 -2.536,-3.725l0,-0.642l6.646,0c3.307,0 5.137,1.701 5.137,3.981c0,2.216 -1.83,3.95 -5.137,3.95l-1.831,0l0.001,1.572c-0.001,3.212 0.385,3.757 2.536,3.757Zm-0.706,-12.104l-1.831,0l0.001,5.586l1.83,0c1.798,0 2.633,-1.252 2.633,-2.761c0,-1.541 -0.835,-2.825 -2.633,-2.825Z" style="fill-rule:nonzero;"/><path d="M125.677,20.713l-0.161,0.578c-0.288,1.059 -0.642,1.444 -2.922,1.444l-0.449,0c-1.669,0 -1.958,-0.385 -1.958,-2.664l0,-1.477c2.504,0 2.697,0.224 2.697,1.894l0.61,0l0,-4.784l-0.61,0c0,1.669 -0.193,1.894 -2.697,1.894l0,-3.595l1.765,0c2.28,0 2.633,0.385 2.922,1.444l0.161,0.61l0.513,0l-0.224,-3.018l-9.44,0l0,0.61c1.798,0 2.087,0.385 2.087,2.665l0,4.11c0,2.085 -0.245,2.611 -1.663,2.685c-1.347,-0.205 -2.272,-0.94 -3.538,-2.332l-1.477,-1.605c1.991,-0.354 3.051,-1.606 3.051,-3.019c0,-1.765 -1.509,-3.114 -4.335,-3.114l-5.65,0l0,0.61c1.797,0 2.086,0.385 2.086,2.665l0,4.11c0,2.279 -0.289,2.697 -2.086,2.697l0,0.61l6.389,0l0,-0.61c-1.798,0 -2.087,-0.418 -2.087,-2.697l0,-1.156l0.546,0l3.564,4.463l13.195,0l0.193,-3.018l-0.482,0Zm-17.016,-2.441l0,-4.269l1.316,0c1.445,0 2.087,0.995 2.087,2.151c0,1.124 -0.642,2.119 -2.087,2.119l-1.316,0l0,-0.001Z" style="fill-rule:nonzero;"/><path d="M132.195,24.148c-1.284,0 -2.408,-0.674 -2.89,-1.092c-0.161,0.161 -0.449,0.643 -0.513,1.092l-0.611,0l0,-4.43l0.643,0c0.257,2.119 1.733,3.371 3.628,3.371c1.027,0 1.862,-0.578 1.862,-1.541c0,-0.835 -0.738,-1.477 -2.055,-2.087l-1.83,-0.867c-1.285,-0.61 -2.248,-1.67 -2.248,-3.082c0,-1.541 1.445,-2.858 3.436,-2.858c1.06,0 1.958,0.386 2.504,0.835c0.161,-0.128 0.321,-0.482 0.418,-0.867l0.61,0l0,3.789l-0.674,0c-0.225,-1.51 -1.06,-2.762 -2.761,-2.762c-0.899,0 -1.735,0.514 -1.735,1.317c0,0.835 0.675,1.284 2.216,1.99l1.766,0.867c1.541,0.739 2.151,1.927 2.151,2.89c0,2.023 -1.766,3.435 -3.917,3.435Z" style="fill-rule:nonzero;"/><path d="M142.083,24.148c-1.284,0 -2.408,-0.674 -2.889,-1.092c-0.161,0.161 -0.45,0.643 -0.514,1.092l-0.61,0l0,-4.43l0.642,0c0.257,2.119 1.734,3.371 3.628,3.371c1.028,0 1.863,-0.578 1.863,-1.541c0,-0.835 -0.739,-1.477 -2.055,-2.087l-1.831,-0.867c-1.284,-0.61 -2.247,-1.67 -2.247,-3.082c0,-1.541 1.445,-2.858 3.435,-2.858c1.06,0 1.959,0.386 2.505,0.835c0.16,-0.128 0.321,-0.482 0.417,-0.867l0.61,0l0,3.789l-0.674,0c-0.225,-1.51 -1.06,-2.762 -2.761,-2.762c-0.899,0 -1.734,0.514 -1.734,1.317c0,0.835 0.674,1.284 2.215,1.99l1.766,0.867c1.541,0.739 2.151,1.927 2.151,2.89c0,2.023 -1.766,3.435 -3.917,3.435Z" style="fill-rule:nonzero;"/><path d="M2.354,16.563c0,5.624 3.269,10.484 8.009,12.788l-6.778,-18.571c-0.789,1.767 -1.231,3.723 -1.231,5.783Z" style="fill-rule:nonzero;"/><path d="M26.156,15.846c0,-1.756 -0.631,-2.972 -1.172,-3.919c-0.72,-1.17 -1.396,-2.161 -1.396,-3.332c0,-1.306 0.991,-2.522 2.386,-2.522c0.063,0 0.123,0.008 0.185,0.012c-2.528,-2.316 -5.896,-3.731 -9.596,-3.731c-4.964,0 -9.331,2.547 -11.872,6.405c0.334,0.01 0.648,0.017 0.915,0.017c1.486,0 3.787,-0.18 3.787,-0.18c0.766,-0.045 0.856,1.08 0.091,1.17c0,0 -0.77,0.091 -1.627,0.136l5.175,15.391l3.109,-9.326l-2.213,-6.066c-0.766,-0.045 -1.49,-0.135 -1.49,-0.135c-0.766,-0.045 -0.676,-1.216 0.089,-1.171c0,0 2.347,0.181 3.743,0.181c1.486,0 3.787,-0.181 3.787,-0.181c0.766,-0.045 0.856,1.08 0.091,1.171c0,0 -0.771,0.09 -1.626,0.135l5.135,15.274l1.417,-4.736c0.614,-1.965 1.082,-3.377 1.082,-4.593Z" style="fill-rule:nonzero;"/><path d="M16.813,17.806l-4.263,12.388c1.273,0.374 2.619,0.579 4.014,0.579c1.654,0 3.241,-0.286 4.718,-0.806c-0.038,-0.06 -0.073,-0.125 -0.101,-0.195l-4.368,-11.966Z" style="fill-rule:nonzero;"/><path d="M29.031,9.746c0.061,0.452 0.096,0.938 0.096,1.461c0,1.442 -0.269,3.063 -1.08,5.089l-4.341,12.549c4.225,-2.463 7.066,-7.04 7.066,-12.282c0,-2.47 -0.631,-4.793 -1.741,-6.817Z" style="fill-rule:nonzero;"/><path d="M16.563,0c-9.132,0 -16.563,7.43 -16.563,16.563c0,9.134 7.431,16.564 16.563,16.564c9.133,0 16.565,-7.43 16.565,-16.564c-0.001,-9.133 -7.432,-16.563 -16.565,-16.563Zm0,32.367c-8.714,0 -15.804,-7.089 -15.804,-15.804c0,-8.714 7.09,-15.804 15.804,-15.804c8.714,0 15.804,7.09 15.804,15.804c0,8.715 -7.09,15.804 -15.804,15.804Z" style="fill-rule:nonzero;"/></g></svg>