<svg width="105" height="26" viewBox="0 0 105 26" fill="none" xmlns="http://www.w3.org/2000/svg">
<path d="M33.9045 10.1672C33.9045 8.31284 32.0729 6.34333 28.9033 6.34333C25.3439 6.34333 21.4339 8.91392 20.8363 14.0423C20.2258 19.2218 23.4993 21.5239 26.7988 21.5239C30.0984 21.5239 31.8261 20.2577 33.5927 18.5696C32.0729 16.6896 30.1113 17.5593 29.7346 17.7511C29.3189 17.9557 28.7863 18.2371 27.6952 18.2371C26.4221 18.2371 25.1231 17.6744 25.1231 15.334C33.281 14.5411 33.9045 12.0216 33.9045 10.1672ZM29.8645 10.4742C29.8126 11.0497 29.5787 12.0344 25.4479 12.5844C26.3182 9.54058 27.981 9.31038 28.7474 9.31038C29.4618 9.31038 29.9165 9.8603 29.8645 10.4742ZM16.0429 10.9729C16.0429 10.9729 14.2893 16.3955 14.1464 16.8431C14.0944 16.3827 12.8084 6.65027 12.8084 6.65027C9.82061 6.65027 8.22281 8.74766 7.37845 10.9602C7.37845 10.9602 5.24805 16.3955 5.06619 16.8559C5.0532 16.4338 4.74143 11.0241 4.74143 11.0241C4.55957 8.31284 2.03947 6.66306 0 6.66306L2.46814 21.4088C5.59879 21.396 7.28752 19.3114 8.17085 17.0989C8.17085 17.0989 10.0544 12.303 10.1324 12.0856C10.1454 12.2902 11.4834 21.4088 11.4834 21.4088C14.627 21.4088 16.3157 19.452 17.225 17.3163L21.6287 6.66306C18.5241 6.66306 16.8873 8.74766 16.0429 10.9729ZM45.4398 6.31776C43.5043 6.31776 42.0234 7.35366 40.7763 8.87555V8.86276L41.8935 0C39.3214 0 37.23 2.1997 36.8273 5.47368L34.8788 21.2937C36.3596 21.2937 37.9315 20.8716 38.7758 19.7973C39.5293 20.7565 40.6594 21.5239 42.3352 21.5239C46.6739 21.5239 49.6487 16.5617 49.6487 11.9065C49.6227 7.6606 47.5312 6.31776 45.4398 6.31776ZM45.0371 13.9272C44.5825 16.5234 43.1146 18.2882 41.6986 18.2882C40.2697 18.2882 39.6592 17.6616 39.6592 17.6616C39.932 15.3851 40.1008 13.9911 40.6204 12.789C41.1401 11.5868 42.3741 9.66847 43.6602 9.66847C44.9202 9.66847 45.4918 11.3182 45.0371 13.9272ZM60.4825 6.66306H57.4558L57.4688 6.50959C57.6766 4.56567 58.1443 3.54255 59.6901 3.37629C60.7423 3.27398 61.21 2.73684 61.3269 2.14855C61.4178 1.68815 61.7036 0.0895229 61.7036 0.0895229C55.6242 0.0511559 53.7146 2.63453 53.221 6.57354L53.208 6.66306H53.143C52.1558 6.66306 51.0646 7.76291 50.8827 9.15691L50.8178 9.66847H52.8442L51.1425 23.5061L50.6229 25.9872C50.6879 25.9872 50.7658 26 50.8308 26C53.6756 25.8977 55.4942 23.6852 55.8969 20.4752L57.222 9.66847H58.1702C59.1055 9.66847 60.1967 8.74766 60.3916 7.21299L60.4825 6.66306ZM76.2267 6.40728C72.7323 6.40728 69.4328 8.9395 68.4195 12.9169C67.4063 16.8942 68.9391 21.6006 74.0833 21.6006C79.2144 21.6006 82.1762 16.7024 82.1762 12.6227C82.1762 8.56862 79.3833 6.40728 76.2267 6.40728ZM77.6426 13.7993C77.4607 15.6026 76.6553 18.3394 74.447 18.3394C72.2257 18.3394 72.5374 15.1422 72.7583 13.6203C72.9921 11.9961 73.9144 9.68126 75.9019 9.68126C77.6816 9.68126 77.8504 11.7659 77.6426 13.7993ZM99.4402 10.9729C99.4402 10.9729 97.6865 16.3955 97.5436 16.8431C97.4917 16.3827 96.2056 6.65027 96.2056 6.65027C93.2179 6.65027 91.6201 8.74766 90.7757 10.9602C90.7757 10.9602 88.6453 16.3955 88.4634 16.8559C88.4505 16.4338 88.1387 11.0241 88.1387 11.0241C87.9568 8.31284 85.4367 6.66306 83.3973 6.66306L85.8524 21.4088C88.9831 21.396 90.6718 19.3114 91.5551 17.0989C91.5551 17.0989 93.4387 12.303 93.5037 12.0856C93.5166 12.2902 94.8546 21.4088 94.8546 21.4088C97.9983 21.4088 99.687 19.452 100.596 17.3163L105 6.66306C101.908 6.66306 100.272 8.74766 99.4402 10.9729ZM63.3403 0.0895229L60.7943 20.3089L60.2747 22.8028C60.3396 22.8028 60.4175 22.8155 60.4825 22.8155C63.2234 22.7772 65.172 20.4112 65.5357 17.4314L67.0036 5.83178C67.4453 2.28923 65.3019 0.0895229 63.3403 0.0895229Z" fill="white"/>
</svg>
