<svg width="96" height="29" viewBox="0 0 96 29" fill="none" xmlns="http://www.w3.org/2000/svg">
<path fill-rule="evenodd" clip-rule="evenodd" d="M61.5047 8.23407C62.5766 6.88543 64.2245 6.14802 66.1924 6.14802C70.3946 6.14802 73.3299 9.57255 73.3299 14.4757C73.3299 19.4141 70.3946 22.8632 66.1924 22.8632C64.2356 22.8632 62.5866 22.1156 61.5047 20.7483V22.506H57.4874V0H61.5047V8.23407ZM65.3648 19.2889C68.1451 19.2889 69.1356 16.8334 69.1356 14.5356C69.1356 12.2089 68.1451 9.72282 65.3648 9.72282C62.6985 9.72282 61.5047 12.1404 61.5047 14.5356C61.5047 17.4227 63.0196 19.2889 65.3648 19.2889ZM74.2618 0V22.5065H78.333V0H74.2618ZM39.8962 14.0245L39.894 15.5587H28.6344C28.7186 17.8431 30.2618 19.2549 32.6922 19.2549C34.3276 19.2549 35.7111 18.6025 36.6925 17.3667L36.7825 17.2533L39.4062 19.7351L39.3253 19.8319C37.6266 21.8602 35.3239 22.8885 32.4829 22.8885C27.506 22.8885 24.2901 19.6319 24.2901 14.5908C24.2901 9.55612 27.4863 6.17383 32.2428 6.17383C36.8203 6.17383 39.8962 9.32885 39.8962 14.0245ZM35.9827 12.5368H28.7638C29.1648 10.8112 30.5499 9.74756 32.4137 9.74756C34.293 9.74756 35.6163 10.7871 35.9827 12.5368ZM56.3122 14.0245L56.3101 15.5587H45.0505C45.1346 17.8431 46.6779 19.2549 49.1083 19.2549C50.7437 19.2549 52.1272 18.6025 53.1086 17.3667L53.1986 17.2533L55.8223 19.7351L55.7414 19.8319C54.0426 21.8602 51.74 22.8885 48.899 22.8885C43.9221 22.8885 40.7062 19.6319 40.7062 14.5908C40.7062 9.55612 43.9024 6.17383 48.6589 6.17383C53.2364 6.17383 56.3122 9.32885 56.3122 14.0245ZM52.3988 12.5368H45.1799C45.5809 10.8112 46.966 9.74756 48.8298 9.74756C50.7091 9.74756 52.0324 10.7871 52.3988 12.5368ZM20.2146 6.53029H24.5392L20.1821 22.5316H15.5572L12.6305 12.243L9.64568 22.5316H5.00476L4.97813 22.4327L0.67749 6.53029H5.03138L7.45595 16.7199L10.3987 6.53029H14.8777L17.8199 16.7167L20.2146 6.53029ZM95.6775 6.55068H91.3156L87.6343 17.2136L83.9248 6.55068H79.3499L85.6618 22.5076L83.2399 29H87.1449L95.6775 6.55068Z" fill="white"/>
</svg>
