<svg width="64" height="25" viewBox="0 0 64 25" fill="none" xmlns="http://www.w3.org/2000/svg">
<path d="M36.6211 0.479442C35.3375 1.15795 34.879 2.27659 34.879 5.37573C34.879 5.37573 35.5209 4.75222 36.4744 4.40379C37.1713 4.1654 37.7581 3.78031 38.1065 3.52357C39.1885 2.73503 39.3352 1.72645 39.3352 0.0210029C39.3352 0.0210029 37.5747 -0.034044 36.6211 0.479442V0.479442Z" fill="white"/>
<path d="M29.1026 1.21291C28.0756 2.12981 27.7639 3.57852 27.7639 3.57852L24.3163 16.8186L21.4739 5.96246C21.1989 4.8255 20.6854 3.3768 19.8968 2.42322C18.9066 1.2129 16.8711 1.13955 16.651 1.13955C16.4309 1.13955 14.3771 1.2129 13.3685 2.44156C12.5799 3.41348 12.0665 4.84384 11.7914 5.9808L8.949 16.837L5.53811 3.57852C5.53811 3.57852 5.2447 2.11147 4.19943 1.21291C2.51232 -0.272478 0 0.0392696 0 0.0392696L6.54671 24.8691C6.54671 24.8691 8.7106 25.0341 9.79255 24.4656C11.2046 23.7504 11.9014 23.1819 12.7633 19.7894C13.5335 16.782 15.6791 7.94298 15.8808 7.30115C15.9725 6.9894 16.1009 6.23754 16.651 6.23754C17.2195 6.23754 17.3295 6.97106 17.4212 7.30115C17.6229 7.92464 19.7501 16.782 20.5387 19.7894C21.4006 23.1636 22.0791 23.7138 23.5095 24.4656C24.5914 25.0341 26.7553 24.8691 26.7553 24.8691L33.302 0.0576079C33.302 0.0576079 30.7897 -0.254139 29.1026 1.21291V1.21291ZM39.3352 4.09199C39.3352 4.09199 38.9318 4.71548 37.9966 5.26563C37.3914 5.59571 36.8229 5.8341 36.1994 6.12751C35.1725 6.62264 34.8791 7.19113 34.8791 8.03468V24.8691C34.8791 24.8691 36.5479 25.0708 37.6115 24.539C39.0052 23.8238 39.3169 23.1453 39.3352 20.0461V4.09199ZM55.6928 12.5092L64 0.112602C64 0.112602 60.4974 -0.492537 58.7553 1.10288C57.6367 2.11147 56.3897 3.92695 56.3897 3.92695L53.3456 8.36475C53.1805 8.58481 53.0155 8.84155 52.7037 8.84155C52.392 8.84155 52.1903 8.60315 52.0619 8.36475L48.9811 3.94528C48.9811 3.94528 47.7524 2.12981 46.6155 1.12121C44.8917 -0.474199 41.3708 0.13094 41.3708 0.13094L49.6963 12.4908L41.3708 24.8324C41.3708 24.8324 45.0384 25.3092 46.7622 23.7138C47.8808 22.7052 48.9628 21.0364 48.9628 21.0364L52.0069 16.6169C52.1719 16.3968 52.337 16.1401 52.6487 16.1401C52.9605 16.1401 53.1622 16.3785 53.2905 16.6169L56.3347 21.0364C56.3347 21.0364 57.4716 22.6685 58.5719 23.7138C60.2957 25.3092 63.9083 24.8324 63.9083 24.8324L55.6928 12.5092Z" fill="white"/>
</svg>
